<svg width="21" height="20" viewBox="0 0 21 20" fill="none" xmlns="http://www.w3.org/2000/svg">
<rect width="20" height="20" transform="translate(0.75)" fill="#FAEDCD"/>
<rect x="1.75" y="1" width="18" height="18" rx="4" fill="#D4A373"/>
<rect x="2.75" y="2" width="16" height="16" rx="4" fill="#FAEDCD"/>
<path d="M8.306 14H6.482V8.132H8.306V14ZM7.406 5.588C7.994 5.588 8.354 5.984 8.366 6.5C8.366 7.004 7.994 7.412 7.382 7.412C6.806 7.412 6.434 7.004 6.434 6.5C6.434 5.984 6.818 5.588 7.406 5.588ZM9.77497 14V10.004C9.77497 9.272 9.75097 8.66 9.72697 8.132H11.311L11.395 8.948H11.431C11.671 8.564 12.259 8 13.243 8C14.443 8 15.343 8.804 15.343 10.532V14H13.519V10.748C13.519 9.992 13.255 9.476 12.595 9.476C12.091 9.476 11.791 9.824 11.659 10.16C11.611 10.28 11.599 10.448 11.599 10.616V14H9.77497Z" fill="#D4A373"/>
</svg>
